# xmcd
#
# Track frame offsets:
#	150
#	14703
#	27064
#	46415
#	65448
#	82577
#	100843
#	119031
#	136273
#	154903
#	168180
#	184857
#	204548
#	222470
#	239446
#
# Disc length: 3418 seconds
#
# Revision: 0
# Processed by: cddbd v1.5.2PL0 Copyright (c) Steve Scherf et al.
# Submitted via: audiograbber 1.83.01
#
DISCID=ce0d580f
DTITLE=Various Artist - Chartbuster
DYEAR=1900
DGENRE=
TTITLE0=John Anderson - Money in the bank
TTITLE1=Larry Stewart - Alright Already
TTITLE2=Tanya Tucker - You Just Watch me
TTITLE3=Vince Gill - No Future in the Past
TTITLE4=Clint Black - No Time to Kill
TTITLE5=Trisha Yearwood - Down on my Knees
TTITLE6=Little Texas - Id Rather Miss You
TTITLE7=Shenadoah - I Want to be Loved Like That
TTITLE8=Patty Loveless - Nothing But the Wheel
TTITLE9=Tracy Lawrence - My Second Home
TTITLE10=Daron Norwood - If it Wasnt for Her I wouldnt have you
TTITLE11=Reba McEntire - Does he Love You
TTITLE12=Billy Dean - I Wanna Take Care of You
TTITLE13=Alan Jackson - Mercury Blues
TTITLE14=Lari White - Thats my Baby
EXTD=
EXTT0=
EXTT1=
EXTT2=
EXTT3=
EXTT4=
EXTT5=
EXTT6=
EXTT7=
EXTT8=
EXTT9=
EXTT10=
EXTT11=
EXTT12=
EXTT13=
EXTT14=
PLAYORDER=
